<svg xmlns="http://www.w3.org/2000/svg" width="28" height="28">
<g fill="#18453b">
<path d="M24.5858 1.9276s-1.4523 3.1212-2.1938 4.6702c-3.618-1.664-8.3641-1.9026-12.354.4625-2.6576 1.6261-4.8037 4.5124-5.024 7.6141-.0758 2.0702.8223 4.335.531 6.4004-.077 1.1085-.3303 2.217-.8515 3.1726-.6595 1.1097-1.4572 2.0702-2.786 2.146.2961-.3682 2.3467-1.3813 1.5392-6.0307-.3206-1.8403-2.8533-6.415-.4013-12.1449C5.277 2.9884 14.9504-3.215 24.5858 1.9276z"/>
<path d="M13.503 11.1041c1.2517-.454 2.6563-.4588 3.985-.1676 2.5095.4454 4.3926 1.9601 5.3053 4.2114.9605 2.3517 1.6493 4.253 3.2987 6.2658.0428.0575-2.5719-.383-2.5621-.4589.6399-4.6653-3.771-4.8562-4.9896-3.1114.9176 1.0082 2.4899 1.5245 3.7085 1.3287-.263 4.6311 1.0327 8.8377.9556 8.8279-1.0461-.1432-5.8644-2.9781-7.269-4.2065-2.0702.3682-3.6902 1.133-6.0847 1.4633-.0758.0086.4356-1.7692.3634-2.6526 0-2.4385-1.8683-4.7229-.5445-7.7193.7929-1.7925 1.9883-3.1164 3.8334-3.7808zM15.238 9.6995c.1382 0 .3487.033.3536.0184.0428-.1615.1713-1.319 1.1562-2.1596 1.0939-.9372 2.5376-.8467 2.523-.8565-1.4377-.4343-2.9145-.4674-3.9374-.3768l-.0954 3.3745zM6.114 13.9c-.2202 1.391-.2349 2.682-.1199 3.3646.005.0098.2056-1.1758.8834-1.845.5836-.5825 1.3337-.6926 1.5967-.6828 0-.0049.1346-.454.115-.4588L6.114 13.9zM8.8902 13.6466c.0722-.186.1579-.3487.268-.5591l-2.5523-.9886c-.1578.3144-.2778.7928-.3353 1.051l2.6196.4967zM9.502 12.6715c.0098-.0086.4111-.52.416-.5151l-2.332-1.7546c-.2448.3059-.4454.6448-.6033 1.0033l2.5193 1.2664zM10.372 11.7159c.0146-.0147.5212-.4686.5212-.4686L8.8707 8.9446c-.4589.3964-.5971.5726-.8736.9127l2.3748 1.8586zM11.423 10.9181c.0049.0282.5836-.3205.5934-.3487L10.515 7.8348c-.5738.2778-.9409.5739-1.1085.6938l2.0164 2.3895zM12.5376 10.3113c.7158-.2447.7158-.2484.7158-.235l-.8553-3.0771c-.4723.1382-1.1183.416-1.2663.5163l1.4058 2.7958zM13.8089 9.8953c.0232.0147.6448-.1383.6546-.1383l.0758-3.3317c-.0232.0233-.7696.1383-1.4046.3157l.6742 3.1543z"/>
</g>
</svg>
